<svg width="42" height="35" viewBox="0 0 42 35" fill="none" xmlns="http://www.w3.org/2000/svg">
<path d="M39.0864 32.7804C39.1746 32.7813 39.262 32.764 39.3432 32.7297C39.4245 32.6954 39.4978 32.6448 39.5587 32.5809C39.6195 32.5171 39.6666 32.4415 39.697 32.3587C39.7275 32.2759 39.7405 32.1877 39.7354 32.0997C39.7354 31.6169 39.4442 31.3862 38.8466 31.3862H37.881V33.9139H38.2442V32.812H38.6905L38.7007 32.8255L39.3932 33.9139H39.7816L39.0365 32.7874L39.0864 32.7804ZM38.6664 32.5272H38.2453V31.6727H38.779C39.0547 31.6727 39.3691 31.7177 39.3691 32.0788C39.3691 32.4939 39.051 32.5272 38.6642 32.5272H38.6664ZM29.6132 29.6128H24.4635V21.5483C24.4635 19.6252 24.4292 17.1496 21.7852 17.1496C19.1031 17.1496 18.6927 19.2449 18.6927 21.4083V29.6123H13.543V13.0283H18.4867V15.2947H18.5559C19.0506 14.4488 19.7656 13.7529 20.6245 13.2811C21.4835 12.8094 22.4543 12.5794 23.4336 12.6158C28.653 12.6158 29.6153 16.0489 29.6153 20.5151L29.6132 29.6128ZM7.73252 10.7614C7.14147 10.7615 6.56366 10.5863 6.07216 10.258C5.58066 9.92975 5.19755 9.4631 4.97126 8.91708C4.74498 8.37106 4.68569 7.7702 4.80089 7.19049C4.9161 6.61077 5.20062 6.07824 5.61848 5.66023C6.03634 5.24222 6.56877 4.9575 7.14845 4.84209C7.72812 4.72668 8.329 4.78575 8.8751 5.01184C9.4212 5.23792 9.888 5.62087 10.2165 6.11225C10.5449 6.60364 10.7203 7.18138 10.7204 7.77243C10.7205 8.16487 10.6432 8.55349 10.4931 8.91609C10.343 9.27868 10.1229 9.60816 9.84548 9.88571C9.56804 10.1633 9.23864 10.3834 8.87609 10.5337C8.51355 10.6839 8.12496 10.7613 7.73252 10.7614ZM10.3073 29.6128H5.15233V13.0283H10.3073V29.6128ZM32.1805 0.00236698H2.56463C1.89244 -0.00521874 1.24473 0.254375 0.763832 0.724104C0.282938 1.19383 0.00820378 1.83527 0 2.50745V32.2461C0.007923 32.9186 0.282481 33.5605 0.763359 34.0307C1.24424 34.5009 1.8921 34.7611 2.56463 34.7539H32.1805C32.8543 34.7623 33.504 34.503 33.9868 34.0328C34.4696 33.5626 34.746 32.92 34.7553 32.2461V2.50531C34.7457 1.83179 34.4691 1.18963 33.9863 0.719908C33.5035 0.250191 32.854 -0.00866163 32.1805 0.000221299" fill="black"/>
<path d="M38.7103 30.2603C38.0838 30.2663 37.4851 30.5202 37.0453 30.9664C36.6055 31.4127 36.3602 32.0149 36.3632 32.6415C36.3663 33.268 36.6173 33.8679 37.0614 34.3099C37.5055 34.7519 38.1066 35 38.7331 35C39.3597 35 39.9608 34.7519 40.4049 34.3099C40.849 33.8679 41.1 33.268 41.103 32.6415C41.106 32.0149 40.8608 31.4127 40.4209 30.9664C39.9811 30.5202 39.3825 30.2663 38.7559 30.2603H38.7103ZM38.7103 34.7287C38.2994 34.7355 37.8956 34.6203 37.5501 34.3977C37.2046 34.1751 36.9329 33.855 36.7693 33.478C36.6058 33.1009 36.5576 32.6838 36.6311 32.2794C36.7046 31.8751 36.8963 31.5015 37.182 31.2061C37.4678 30.9107 37.8347 30.7066 38.2364 30.6197C38.6382 30.5329 39.0566 30.567 39.4389 30.718C39.8212 30.8689 40.1501 31.1298 40.3841 31.4677C40.6182 31.8056 40.7467 32.2053 40.7536 32.6163V32.6511C40.7651 33.1902 40.562 33.7118 40.189 34.1012C39.816 34.4906 39.3036 34.7159 38.7645 34.7276H38.7109" fill="black"/>
</svg>
