<svg width="34" height="60" viewBox="0 0 34 60" fill="none" xmlns="http://www.w3.org/2000/svg">
<path d="M13.6402 2.7313C13.7349 2.7313 13.8118 2.65207 13.8118 2.55433C13.8118 2.45659 13.7349 2.37735 13.6402 2.37735C13.5454 2.37735 13.4686 2.45659 13.4686 2.55433C13.4686 2.65207 13.5454 2.7313 13.6402 2.7313Z" fill="black"/>
<path d="M14.1419 2.7313C14.2367 2.7313 14.3135 2.65207 14.3135 2.55433C14.3135 2.45659 14.2367 2.37735 14.1419 2.37735C14.0471 2.37735 13.9703 2.45659 13.9703 2.55433C13.9703 2.65207 14.0471 2.7313 14.1419 2.7313Z" fill="black"/>
<path d="M14.6425 2.7313C14.7373 2.7313 14.8141 2.65207 14.8141 2.55433C14.8141 2.45659 14.7373 2.37735 14.6425 2.37735C14.5477 2.37735 14.4709 2.45659 14.4709 2.55433C14.4709 2.65207 14.5477 2.7313 14.6425 2.7313Z" fill="black"/>
<path d="M15.1432 2.7313C15.238 2.7313 15.3148 2.65207 15.3148 2.55433C15.3148 2.45659 15.238 2.37735 15.1432 2.37735C15.0484 2.37735 14.9716 2.45659 14.9716 2.55433C14.9716 2.65207 15.0484 2.7313 15.1432 2.7313Z" fill="black"/>
<path d="M15.6449 2.7313C15.7396 2.7313 15.8165 2.65207 15.8165 2.55433C15.8165 2.45659 15.7396 2.37735 15.6449 2.37735C15.5501 2.37735 15.4733 2.45659 15.4733 2.55433C15.4733 2.65207 15.5501 2.7313 15.6449 2.7313Z" fill="black"/>
<path d="M16.1465 2.7313C16.2413 2.7313 16.3181 2.65207 16.3181 2.55433C16.3181 2.45659 16.2413 2.37735 16.1465 2.37735C16.0518 2.37735 15.9749 2.45659 15.9749 2.55433C15.9749 2.65207 16.0518 2.7313 16.1465 2.7313Z" fill="black"/>
<path d="M16.6472 2.7313C16.742 2.7313 16.8188 2.65207 16.8188 2.55433C16.8188 2.45659 16.742 2.37735 16.6472 2.37735C16.5524 2.37735 16.4756 2.45659 16.4756 2.55433C16.4756 2.65207 16.5524 2.7313 16.6472 2.7313Z" fill="black"/>
<path d="M17.1479 2.7313C17.2427 2.7313 17.3195 2.65207 17.3195 2.55433C17.3195 2.45659 17.2427 2.37735 17.1479 2.37735C17.0531 2.37735 16.9763 2.45659 16.9763 2.55433C16.9763 2.65207 17.0531 2.7313 17.1479 2.7313Z" fill="black"/>
<path d="M17.6485 2.7313C17.7433 2.7313 17.8201 2.65207 17.8201 2.55433C17.8201 2.45659 17.7433 2.37735 17.6485 2.37735C17.5537 2.37735 17.4769 2.45659 17.4769 2.55433C17.4769 2.65207 17.5537 2.7313 17.6485 2.7313Z" fill="black"/>
<path d="M18.1523 2.7313C18.2471 2.7313 18.3239 2.65207 18.3239 2.55433C18.3239 2.45659 18.2471 2.37735 18.1523 2.37735C18.0575 2.37735 17.9807 2.45659 17.9807 2.55433C17.9807 2.65207 18.0575 2.7313 18.1523 2.7313Z" fill="black"/>
<path d="M18.6529 2.7313C18.7477 2.7313 18.8245 2.65207 18.8245 2.55433C18.8245 2.45659 18.7477 2.37735 18.6529 2.37735C18.5581 2.37735 18.4813 2.45659 18.4813 2.55433C18.4813 2.65207 18.5581 2.7313 18.6529 2.7313Z" fill="black"/>
<path d="M19.1536 2.7313C19.2484 2.7313 19.3252 2.65207 19.3252 2.55433C19.3252 2.45659 19.2484 2.37735 19.1536 2.37735C19.0588 2.37735 18.982 2.45659 18.982 2.55433C18.982 2.65207 19.0588 2.7313 19.1536 2.7313Z" fill="black"/>
<path d="M19.6543 2.7313C19.749 2.7313 19.8259 2.65207 19.8259 2.55433C19.8259 2.45659 19.749 2.37735 19.6543 2.37735C19.5595 2.37735 19.4827 2.45659 19.4827 2.55433C19.4827 2.65207 19.5595 2.7313 19.6543 2.7313Z" fill="black"/>
<path d="M20.1559 2.7313C20.2507 2.7313 20.3275 2.65207 20.3275 2.55433C20.3275 2.45659 20.2507 2.37735 20.1559 2.37735C20.0612 2.37735 19.9843 2.45659 19.9843 2.55433C19.9843 2.65207 20.0612 2.7313 20.1559 2.7313Z" fill="black"/>
<path d="M29.561 0H3.77327C1.68886 0 0 1.74186 0 3.89144V56.1086C0 58.2581 1.68897 60 3.77327 60H29.5601C31.6445 60 33.3333 58.258 33.3333 56.1086V3.89144C33.3344 1.74186 31.6454 0 29.561 0ZM26.9229 2.3109C27.1527 2.3109 27.3397 2.50375 27.3397 2.74078C27.3397 2.97891 27.1518 3.17065 26.9229 3.17065C26.692 3.17065 26.5061 2.97781 26.5061 2.74078C26.505 2.50375 26.692 2.3109 26.9229 2.3109ZM12.2037 1.93988H21.523C21.853 1.93988 22.1186 2.21492 22.1186 2.55311C22.1186 2.89241 21.853 3.16635 21.523 3.16635H12.2037C11.8736 3.16635 11.608 2.8913 11.608 2.55311C11.6091 2.21504 11.8736 1.93988 12.2037 1.93988ZM8.40177 57.4406H7.48426C7.42292 57.4406 7.37388 57.3889 7.37388 57.3257C7.37388 57.2636 7.42292 57.2108 7.48426 57.2108H8.40177C8.46406 57.2108 8.51311 57.2636 8.51311 57.3257C8.51204 57.3889 8.46299 57.4406 8.40177 57.4406ZM8.40177 56.979H7.48426C7.42292 56.979 7.37388 56.9284 7.37388 56.8652C7.37388 56.802 7.42292 56.7503 7.48426 56.7503H8.40177C8.46406 56.7503 8.51311 56.802 8.51311 56.8652C8.51204 56.9284 8.46299 56.979 8.40177 56.979ZM9.17418 57.2793C9.17418 57.4153 9.06787 57.5259 8.93612 57.5259C8.80427 57.5259 8.69699 57.4153 8.69699 57.2793V56.4669H7.18786V57.2793C7.18786 57.4153 7.08165 57.5259 6.94979 57.5259C6.81805 57.5259 6.71077 57.4153 6.71077 57.2793V56.2213C6.71077 56.0854 6.81805 55.9748 6.94979 55.9748H8.93612C9.06787 55.9748 9.17418 56.0854 9.17418 56.2213V57.2793ZM19.6543 57.2035C19.6543 57.7408 19.2313 58.176 18.7102 58.176H14.5833C14.0611 58.176 13.6392 57.7408 13.6392 57.2035V56.352C13.6392 55.8146 14.0611 55.3794 14.5833 55.3794H18.7102C19.2313 55.3794 19.6543 55.8146 19.6543 56.352V57.2035ZM25.8143 57.5723H25.0653C24.9336 57.5723 24.8273 57.4617 24.8273 57.3257C24.8273 57.1898 24.9335 57.0802 25.0653 57.0802H25.8143C25.9758 57.0802 26.1065 56.9505 26.1065 56.7914C26.1065 56.6323 25.9757 56.5038 25.8143 56.5038H25.1829C25.1594 56.5376 25.1298 56.5544 25.0767 56.5586C25.0634 56.5659 25.0409 56.5554 25.0246 56.548L24.6353 56.3783C24.5883 56.3573 24.5566 56.3099 24.5566 56.2571C24.5566 56.2044 24.5873 56.156 24.6343 56.1359L25.0237 55.9663C25.0706 55.9453 25.1269 55.9568 25.1636 55.9947C25.1688 56 25.1739 56.0053 25.178 56.0116H25.8146C26.2386 56.0116 26.5828 56.3625 26.5828 56.7924C26.5826 57.2224 26.2384 57.5723 25.8143 57.5723ZM30.8178 54.1624H2.20077V6.00002H30.8178V54.1624Z" fill="black"/>
</svg>
